<svg id="go" xmlns="http://www.w3.org/2000/svg" xmlns:xlink="http://www.w3.org/1999/xlink" viewBox="0 0 525 350" shape-rendering="geometricPrecision" text-rendering="geometricPrecision">
<polygon id="go-s-p3" points="262,177 257,175 256,177" fill="#96a1a7"/><polygon id="go-s-p4" points="257,175 250,174 256,177" fill="#524c30"/><polygon id="go-s-p5" points="253,198 259,193 256,177" fill="#887936"/><polygon id="go-s-p6" points="256,177 259,193 262,177" fill="#8d9793"/><polygon id="go-s-p7" points="259,193 269,191 262,177" fill="#6b7471"/><polygon id="go-s-p8" points="255,157 249,161 257,175" fill="#372c0d"/><polygon id="go-s-p9" points="257,175 249,161 250,174" fill="#261f09"/><polygon id="go-s-p10" points="256,152 255,157 267,153" fill="#7b7e7a"/><polygon id="go-s-p11" points="262,177 255,157 257,175" fill="#879089"/><polygon id="go-s-p12" points="250,174 253,198 256,177" fill="#8a7f2f"/><polygon id="go-s-p13" points="259,193 274,199 269,191" fill="#5c5944"/><polygon id="go-s-p14" points="255,157 248,156 249,161" fill="#9a8548"/><polygon id="go-s-p15" points="267,153 255,157 262,177" fill="#6a7476"/><polygon id="go-s-p16" points="255,157 256,152 248,156" fill="#b3a66c"/><polygon id="go-s-p17" points="282,161 267,153 262,177" fill="#5f584f"/><polygon id="go-s-p18" points="259,208 274,199 259,193" fill="#29210b"/><polygon id="go-s-p19" points="269,191 284,190 262,177" fill="#61625c"/><polygon id="go-s-p20" points="274,199 284,190 269,191" fill="#616358"/><polygon id="go-s-p21" points="284,190 282,161 262,177" fill="#605f59"/><polygon id="go-s-p22" points="253,198 259,208 259,193" fill="#584a1a"/><polygon id="go-s-p23" points="253,198 254,212 259,208" fill="#747a2d"/><polygon id="go-s-p24" points="301,201 298,195 274,199" fill="#36341c"/><polygon id="go-s-p25" points="284,190 294,169 282,161" fill="#627172"/><polygon id="go-s-p26" points="279,137 264,136 267,153" fill="#56483d"/><polygon id="go-s-p27" points="267,153 264,136 256,152" fill="#666564"/><polygon id="go-s-p28" points="279,137 267,153 282,161" fill="#62584b"/><polygon id="go-s-p29" points="298,195 301,177 284,190" fill="#647b87"/><polygon id="go-s-p30" points="284,190 301,177 294,169" fill="#6c808a"/><polygon id="go-s-p31" points="301,177 300,168 294,169" fill="#6a818f"/><polygon id="go-s-p32" points="294,169 298,155 282,161" fill="#66787b"/><polygon id="go-s-p33" points="301,201 274,199 279,224" fill="#1b1708"/><polygon id="go-s-p34" points="274,199 298,195 284,190" fill="#5e6862"/><polygon id="go-s-p35" points="300,168 298,155 294,169" fill="#505342"/><polygon id="go-s-p36" points="296,150 279,137 282,161" fill="#63655e"/><polygon id="go-s-p37" points="298,155 296,150 282,161" fill="#707a7b"/><polygon id="go-s-p38" points="300,168 304,160 298,155" fill="#6d5621"/><polygon id="go-s-p39" points="298,155 308,154 296,150" fill="#6c8143"/><polygon id="go-s-p40" points="306,163 304,160 300,168" fill="#332608"/><polygon id="go-s-p41" points="306,163 300,168 301,177" fill="#3d3720"/><polygon id="go-s-p42" points="257,127 254,129 264,136" fill="#919799"/><polygon id="go-s-p43" points="279,224 274,199 259,208" fill="#1f1a0d"/><polygon id="go-s-p44" points="298,195 305,194 301,177" fill="#46482e"/><polygon id="go-s-p45" points="264,136 254,129 256,152" fill="#6c736d"/><g id="go-s-g1"><polygon id="go-s-p46" points="213.128982,138.031855 221,146 231,145" transform="translate(-.128982-.031855)" fill="#bdc2b6"/><polygon id="go-s-p47" points="241,124 207,123 213,137" transform="translate(0 1)" fill="#ccd0d3"/><polygon id="go-s-p48" points="243,90 233,100 241,105" fill="#c7cad1"/><polygon id="go-s-p49" points="241,105 233,100 241,125" fill="#b4bbbd"/><polygon id="go-s-p50" points="233,99 209,106 241,124.5" transform="translate(0 1)" fill="#c8d1d7"/></g><polygon id="go-s-p51" points="295,138 281,134 279,137" fill="#6b7074"/><polygon id="go-s-p52" points="279,137 272,130 264,136" fill="#6d5f5e"/><polygon id="go-s-p53" points="254,212 262,226 259,208" fill="#7d7c58"/><polygon id="go-s-p54" points="301,201 305,194 298,195" fill="#23200a"/><polygon id="go-s-p55" points="254,212 254,226 262,226" fill="#99a99e"/><polygon id="go-s-p56" points="281,134 272,130 279,137" fill="#6b6a71"/><polygon id="go-s-p57" points="310,183 306,163 301,177" fill="#978447"/><polygon id="go-s-p58" points="241,125 231,145 234,144" fill="#b5baae"/><polygon id="go-s-p59" points="272,130 266,128 264,136" fill="#9c8e8c"/><polygon id="go-s-p60" points="254,226 256,227 262,226" fill="#a0b1b5"/><polygon id="go-s-p61" points="266,128 257,127 264,136" fill="#b9bdc3"/><polygon id="go-s-p62" points="287,228 279,224 273,242" fill="#5f6562"/><polygon id="go-s-p63" points="262,226 279,224 259,208" fill="#433f2d"/><polygon id="go-s-p64" points="305,194 310,183 301,177" fill="#5a5225"/><polygon id="go-s-p65" points="301,201 307,197 305,194" fill="#5a605a"/><polygon id="go-s-p66" points="305,194 310,196 310,183" fill="#4c4c35"/><polygon id="go-s-p67" points="310,196 307,197 306,211" fill="#282b1a"/><polygon id="go-s-p68" points="310,183 309,162 306,163" fill="#ada683"/><polygon id="go-s-p69" points="306,163 309,162 304,160" fill="#5f5628"/><polygon id="go-s-p70" points="304,160 308,154 298,155" fill="#b4a46c"/><polygon id="go-s-p71" points="296,150 295,138 279,137" fill="#67716a"/><polygon id="go-s-p72" points="281,134 274,126 272,130" fill="#5e4a4b"/><polygon id="go-s-p73" points="272,130 274,126 266,128" fill="#603933"/><polygon id="go-s-p74" points="266,128 262,123 257,127" fill="#bebdbc"/><polygon id="go-s-p75" points="281,118 274,126 281,134" fill="#52464c"/><polygon id="go-s-p76" points="249,243 261,237 256,227" fill="#bdcacb"/><polygon id="go-s-p77" points="309,162 308,154 304,160" fill="#766f2f"/><polygon id="go-s-p78" points="264,123 262,123 266,128" fill="#72524c"/><polygon id="go-s-p79" points="306,211 307,197 301,201" fill="#658496"/><polygon id="go-s-p80" points="307,197 310,196 305,194" fill="#5f6859"/><polygon id="go-s-p81" points="274,126 264,123 266,128" fill="#542e27"/><polygon id="go-s-p82" points="325,170 311,161 309,162" fill="#81a58b"/><polygon id="go-s-p83" points="309,162 311,161 308,154" fill="#517832"/><polygon id="go-s-p84" points="325,170 309,162 310,183" fill="#cfdddf"/><polygon id="go-s-p85" points="249,113 254,129 257,127" fill="#7e807b"/><polygon id="go-s-p86" points="287,228 306,211 301,201" fill="#69808a"/><polygon id="go-s-p87" points="273,242 279,224 262,226" fill="#5d5f56"/><polygon id="go-s-p88" points="279,224 287,228 301,201" fill="#555a51"/><polygon id="go-s-p89" points="249,243 256,227 254,226" fill="#96a78f"/><polygon id="go-s-p90" points="256,227 261,237 262,226" fill="#a2b3bb"/><polygon id="go-s-p91" points="281,118 266,116 274,126" fill="#aa8e87"/><polygon id="go-s-p92" points="241,125 213,138 231,145" fill="#d5d8dc"/><polygon id="go-s-p93" points="281,118 281,134 293,115" fill="#7f94a6"/><polygon id="go-s-p94" points="274,126 266,116 264,123" fill="#a18174"/><polygon id="go-s-p95" points="264,123 266,116 262,123" fill="#8b7470"/><polygon id="go-s-p96" points="262,123 249,113 257,127" fill="#a9b1b2"/><polygon id="go-s-p97" points="293,115 281,134 295,138" fill="#747c7e"/><polygon id="go-s-p98" points="266,116 249,113 262,123" fill="#b9bec4"/><polygon id="go-s-p99" points="248,104 249,113 266,116" fill="#b2bbbf"/><polygon id="go-s-p100" points="261,237 273,242 262,226" fill="#6b7a80"/><polygon id="go-s-p101" points="315,215 319,208 306,211" fill="#4d442d"/><polygon id="go-s-p102" points="321,205 310,183 310,196" fill="#9aaaae"/><polygon id="go-s-p103" points="333,173 325,170 310,183" fill="#cddddf"/><polygon id="go-s-p104" points="310,145 321,146 304,134" fill="#c3cecb"/><polygon id="go-s-p105" points="261,237 272,255 273,242" fill="#6f8087"/><polygon id="go-s-p106" points="315,215 306,211 302,230" fill="#6b8898"/><polygon id="go-s-p107" points="306,211 319,208 310,196" fill="#342e18"/><polygon id="go-s-p108" points="302,230 306,211 287,228" fill="#69818d"/><polygon id="go-s-p109" points="321,222 321,205 319,208" fill="#a2b3bd"/><polygon id="go-s-p110" points="319,208 321,205 310,196" fill="#7a7043"/><polygon id="go-s-p111" points="273,242 302,230 287,228" fill="#617276"/><polygon id="go-s-p112" points="297,116 293,115 295,138" fill="#57634a"/><polygon id="go-s-p113" points="278,89 267,90 266,116" fill="#d8dee3"/><polygon id="go-s-p114" points="267,90 248,104 266,116" fill="#c3cdd1"/><polygon id="go-s-p115" points="338,201 333,173 310,183" fill="#dae4e8"/><polygon id="go-s-p116" points="206,115 207,124 241,125" fill="#c4c9ce"/><polygon id="go-s-p117" points="304,93 290,90 293,115" fill="#738490"/><polygon id="go-s-p118" points="278,89 266,116 281,118" fill="#c8cdd5"/><polygon id="go-s-p119" points="312,117 304,116 304,134" fill="#99a9b9"/><polygon id="go-s-p120" points="302,230 321,222 315,215" fill="#7898ab"/><polygon id="go-s-p121" points="315,215 321,222 319,208" fill="#839aa4"/><polygon id="go-s-p122" points="339,171 338,169 333,173" fill="#b0c5d1"/><polygon id="go-s-p123" points="316,119 312,117 304,134" fill="#b7c3cb"/><polygon id="go-s-p124" points="259,260 272,255 261,237" fill="#9daaaf"/><polygon id="go-s-p125" points="273,242 272,255 302,230" fill="#637479"/><polygon id="go-s-p126" points="350,248 348,234 321,222" fill="#9eb4c4"/><polygon id="go-s-p127" points="259,260 261,237 249,243" fill="#b3bec3"/><polygon id="go-s-p128" points="339,171 333,173 338,201" fill="#e3ebee"/><polygon id="go-s-p129" points="316,119 321,146 333,133" fill="#b4bcc4"/><polygon id="go-s-p130" points="316,119 304,134 321,146" fill="#c5ccd3"/><polygon id="go-s-p131" points="338,201 310,183 321,205" fill="#d1dee3"/><polygon id="go-s-p132" points="209,107 206,115 241,125" fill="#c7ced3"/><polygon id="go-s-p133" points="321,222 338,201 321,205" fill="#b7c8d1"/><polygon id="go-s-p134" points="247,266 259,260 249,243" fill="#b8c7c8"/><polygon id="go-s-p135" points="337,127 333,133 333,134" fill="#7d8c75"/><polygon id="go-s-p136" points="333,134 333,133 321,146" fill="#879e81"/><polygon id="go-s-p137" points="297,116 304,93 293,115" fill="#7a7663"/><polygon id="go-s-p138" points="281,118 293,115 290,90" fill="#849eae"/><polygon id="go-s-p139" points="267,90 257,89 248,104" fill="#c2cdd2"/><polygon id="go-s-p140" points="257,89 243,90 248,104" fill="#9ba7ac"/><polygon id="go-s-p141" points="245,267 247,266 249,243" fill="#809e77"/><polygon id="go-s-p142" points="259,260 277,278 272,255" fill="#9faaae"/><polygon id="go-s-p143" points="256,73 251,84 257,89" fill="#b6bdc1"/><polygon id="go-s-p144" points="248,286 277,278 259,260" fill="#8d999e"/><polygon id="go-s-p145" points="304,93 304,116 310,93" fill="#7c8a9d"/><polygon id="go-s-p146" points="326,111 312,117 316,119" fill="#b8c7d2"/><polygon id="go-s-p147" points="333,133 337,127 316,119" fill="#a5b0ba"/><polygon id="go-s-p148" points="219,92 209,107 233,100" fill="#d4dadd"/><polygon id="go-s-p149" points="256,73 257,89 267,90" fill="#c6cfd3"/><polygon id="go-s-p150" points="246,76.5 260,91.5 268,76.5" transform="translate(25-16.5)" fill="#fff"/><polygon id="go-s-p151" points="257,89 251,84 243,90" fill="#7b787c"/><polygon id="go-s-p152" points="243,90 219,92 233,100" fill="#dee4e7"/><polygon id="go-s-p153" points="244,78 251,84 256,73" fill="#a9a7a9"/><polygon id="go-s-p154" points="235,76 219,92 243,90" fill="#dcdfe3"/><polygon id="go-s-p155" points="337,127 326,111 316,119" fill="#a2b0bf"/><polygon id="go-s-p156" points="310,93 304,116 312,117" fill="#8293a4"/><polygon id="go-s-p157" points="304,93 292,86 290,90" fill="#626872"/><polygon id="go-s-p158" points="290,90 292,86 278,89" fill="#95a6b4"/><polygon id="go-s-p159" points="326,111 310,93 312,117" fill="#aebccb"/><polygon id="go-s-p160" points="304,93 302,79 292,86" fill="#433f40"/><polygon id="go-s-p161" points="337,127 339,119 326,111" fill="#a5b0b8"/><polygon id="go-s-p162" points="326,111 318,83 310,93" fill="#cddae2"/><polygon id="go-s-p163" points="244,78 243,90 251,84" fill="#433e3b"/><polygon id="go-s-p164" points="244,78 241,79 243,90" fill="#808286"/><polygon id="go-s-p165" points="256,73 267,90 285,75" fill="#e4ecee"/><polygon id="go-s-p166" points="248,286 259,260 247,266" fill="#acbcbc"/><polygon id="go-s-p167" points="272,255 312,273 302,230" fill="#667b85"/><polygon id="go-s-p168" points="321,222 348,234 338,201" fill="#a5bac9"/><polygon id="go-s-p169" points="248,286 247,266 245,267" fill="#749368"/><polygon id="go-s-p170" points="241,72 241,79 244,78" fill="#c6c4ca"/><polygon id="go-s-p171" points="241,72 235,76 241,79" fill="#dcdee3"/><polygon id="go-s-p172" points="241,79 235,76 243,90" fill="#bebfc2"/><polygon id="go-s-p173" points="339,119 336,107 326,111" fill="#acb7c5"/><polygon id="go-s-p174" points="285,75 267,90 278,89" fill="#d5dee3"/><polygon id="go-s-p175" points="302,79 285,75 292,86" fill="#989fa7"/><polygon id="go-s-p176" points="292,86 285,75 278,89" fill="#a7b8c1"/><polygon id="go-s-p177" points="307,82 304,93 310,93" fill="#828190"/><polygon id="go-s-p178" points="330,267 321,222 302,230" fill="#7c9ab0"/><polygon id="go-s-p179" points="365,160 363,157 339,171" fill="#939897"/><polygon id="go-s-p180" points="339,171 363,157 338,169" fill="#7e7f7e"/><polygon id="go-s-p181" points="365,160 339,171 378,201" fill="#f6fbfb"/><polygon id="go-s-p182" points="339,119 338,105 336,107" fill="#757671"/><polygon id="go-s-p183" points="318,83 307,82 310,93" fill="#bcc6ce"/><polygon id="go-s-p184" points="256,73 241,72 244,78" fill="#c4c5c6"/><polygon id="go-s-p185" points="336,107 318,83 326,111" fill="#bcccd4"/><polygon id="go-s-p186" points="307,82 302,79 304,93" fill="#666973"/><polygon id="go-s-p187" points="378,201 339,171 338,201" fill="#f0f5f6"/><polygon id="go-s-p188" points="296,296 312,273 277,278" fill="#647781"/><polygon id="go-s-p189" points="277,278 312,273 272,255" fill="#6a7d88"/><polygon id="go-s-p190" points="250,63 241,72 256,73" fill="#d8dddf"/><polygon id="go-s-p191" points="338,105 318,83 336,107" fill="#595958"/><polygon id="go-s-p192" points="307,82 300,68 302,79" fill="#a9b4bf"/><polygon id="go-s-p193" points="248,286 279,287 277,278" fill="#748085"/><polygon id="go-s-p194" points="341,283 330,267 312,273" fill="#6f8a9e"/><polygon id="go-s-p195" points="312,273 330,267 302,230" fill="#708a9d"/><polygon id="go-s-p196" points="271,60 256,73 285,75" fill="#ebf1f3"/><polygon id="go-s-p197" points="300,68 285,75 302,79" fill="#c2c7cd"/><polygon id="go-s-p198" points="330,267 350,248 321,222" fill="#95afc0"/><polygon id="go-s-p199" points="378,201 378,155 365,160" fill="#eff5f6"/><polygon id="go-s-p200" points="318,83 300,68 307,82" fill="#c1cdd2"/><polygon id="go-s-p201" points="271,60 259,58 256,73" fill="#eff4f6"/><polygon id="go-s-p202" points="271,60 270,57 259,58" fill="#b9bdbc"/><polygon id="go-s-p203" points="293,60 270,57 271,60" fill="#7191b4"/><polygon id="go-s-p204" points="269,303 281,296 279,287" fill="#67706f"/><polygon id="go-s-p205" points="279,287 296,296 277,278" fill="#677378"/><polygon id="go-s-p206" points="318,83 301,64 300,68" fill="#515654"/><polygon id="go-s-p207" points="300,68 293,60 285,75" fill="#dbe4e7"/><polygon id="go-s-p208" points="259,58 250,63 256,73" fill="#dbe4e7"/><polygon id="go-s-p209" points="378,201 338,201 380,219" fill="#dde6eb"/><polygon id="go-s-p210" points="365,160 378,155 363,157" fill="#a1a6a3"/><polygon id="go-s-p211" points="380,219 338,201 348,234" fill="#ccd9e1"/><polygon id="go-s-p212" points="248,286 269,303 279,287" fill="#616869"/><polygon id="go-s-p213" points="301,64 293,60 300,68" fill="#7e8a87"/><polygon id="go-s-p214" points="330,267 349,260 350,248" fill="#8ba5b6"/><polygon id="go-s-p215" points="388,231 380,219 348,234" fill="#b7c7d1"/><polygon id="go-s-p216" points="341,283 349,260 330,267" fill="#87a3b5"/><polygon id="go-s-p217" points="301,64 295,59 293,60" fill="#6e7b6d"/><polygon id="go-s-p218" points="281,296 296,296 279,287" fill="#616d6f"/><polygon id="go-s-p219" points="262,310 269,303 248,286" fill="#545550"/><polygon id="go-s-p220" points="281,296 274,312 296,296" fill="#697679"/><polygon id="go-s-p221" points="258,312 262,310 248,286" fill="#65776a"/><polygon id="go-s-p222" points="388,231 348,234 350,248" fill="#a4b8c5"/><polygon id="go-s-p223" points="401,153 396,151 378,155" fill="#91aea5"/><polygon id="go-s-p224" points="269,303 274,312 281,296" fill="#858f91"/><polygon id="go-s-p225" points="311,305 312,273 296,296" fill="#5d6969"/><polygon id="go-s-p226" points="337,297 341,283 312,273" fill="#667c89"/><polygon id="go-s-p227" points="388,246 388,231 350,248" fill="#97acba"/><polygon id="go-s-p228" points="262,310 274,312 269,303" fill="#504c3e"/><polygon id="go-s-p229" points="269,322 274,312 262,310" fill="#493f2f"/><polygon id="go-s-p230" points="274,312 311,305 296,296" fill="#637074"/><polygon id="go-s-p231" points="258,312 265,322 262,310" fill="#67747d"/><polygon id="go-s-p232" points="388,246 350,248 349,260" fill="#8199aa"/><polygon id="go-s-p233" points="380,219 402,198 378,201" fill="#e1e9ed"/><polygon id="go-s-p234" points="311,305 337,297 312,273" fill="#5a6565"/><polygon id="go-s-p235" points="402,269 388,246 349,260" fill="#758ea0"/><polygon id="go-s-p236" points="402,198 378,155 378,201" fill="#eff5f6"/><polygon id="go-s-p237" points="409,214 402,198 380,219" fill="#d7e2e7"/><polygon id="go-s-p238" points="274,312 317,323 311,305" fill="#5b5a4b"/><polygon id="go-s-p239" points="357,317 355,298 337,297" fill="#6d8896"/><polygon id="go-s-p240" points="265,322 269,322 262,310" fill="#515256"/><polygon id="go-s-p241" points="355,298 349,260 341,283" fill="#7896aa"/><polygon id="go-s-p242" points="388,231 409,214 380,219" fill="#c3d1d9"/><polygon id="go-s-p243" points="269,350 276,349 269,322" fill="#565752"/><polygon id="go-s-p244" points="317,323 337,297 311,305" fill="#576364"/><polygon id="go-s-p245" points="337,297 355,298 341,283" fill="#6c899b"/><polygon id="go-s-p246" points="404,234 388,231 388,246" fill="#9cb0bc"/><polygon id="go-s-p247" points="404,234 409,214 388,231" fill="#b1c3cd"/><polygon id="go-s-p248" points="414,160 413,158 401,153" fill="#afc8c5"/><polygon id="go-s-p249" points="414,160 401,153 402,198" fill="#dfe8ea"/><polygon id="go-s-p250" points="402,269 404,234 388,246" fill="#7d96a7"/><polygon id="go-s-p251" points="418,200 414,160 402,198" fill="#d6e1e5"/><polygon id="go-s-p252" points="269,322 317,323 274,312" fill="#50422a"/><polygon id="go-s-p253" points="332,330 317,323 325,340" fill="#5a6669"/><polygon id="go-s-p254" points="269,322 265,322 269,350" fill="#616d72"/><polygon id="go-s-p255" points="427,223 418,200 409,214" fill="#adc2cf"/><polygon id="go-s-p256" points="409,214 418,200 402,198" fill="#cbd9e1"/><polygon id="go-s-p257" points="418,200 425,164 414,160" fill="#c4d4da"/><polygon id="go-s-p258" points="402,198 401,153 378,155" fill="#c4d4da"/><polygon id="go-s-p259" points="357,317 372,300 355,298" fill="#566666"/><polygon id="go-s-p260" points="355,298 372,300 349,260" fill="#657e8d"/><polygon id="go-s-p261" points="317,323 332,330 337,297" fill="#586c75"/><polygon id="go-s-p262" points="372,300 402,269 349,260" fill="#6a8496"/><polygon id="go-s-p263" points="404,234 427,223 409,214" fill="#9fb6c4"/><polygon id="go-s-p264" points="418,167.5 406,161.5 407,163.5" transform="translate(7-3.5)" fill="#a1acb0"/><polygon id="go-s-p265" points="438,192 425,164 418,200" fill="#a0b7c1"/><polygon id="go-s-p266" points="352,325 357,317 337,297" fill="#647e8a"/><polygon id="go-s-p267" points="372,300 419,287 402,269" fill="#5e7480"/><polygon id="go-s-p268" points="260,350 269,350 265,322" fill="#7a8f96"/><polygon id="go-s-p269" points="426,233 427,223 404,234" fill="#829cad"/><polygon id="go-s-p270" points="360,337 352,325 353,350" fill="#585f4d"/><polygon id="go-s-p271" points="332,330 352,325 337,297" fill="#5f7887"/><polygon id="go-s-p272" points="357,317 370,320 372,300" fill="#51574c"/><polygon id="go-s-p273" points="426,254 426,233 404,234" fill="#708b9c"/><polygon id="go-s-p274" points="443,224 435,207 427,223" fill="#d1dde3"/><polygon id="go-s-p275" points="427,223 435,207 418,200" fill="#c4d3dc"/><polygon id="go-s-p276" points="435,207 438,192 418,200" fill="#a2b9c7"/><polygon id="go-s-p277" points="352,325 370,320 357,317" fill="#525847"/><polygon id="go-s-p278" points="422,263 426,254 404,234" fill="#6c889a"/><polygon id="go-s-p279" points="446,211 440,190 438,192" fill="#53734b"/><polygon id="go-s-p280" points="438,192 440,190 425,164" fill="#7c9d8d"/><polygon id="go-s-p281" points="422,263 404,234 402,269" fill="#698495"/><polygon id="go-s-p282" points="426,233 443,224 427,223" fill="#bccdd5"/><polygon id="go-s-p283" points="419,287 422,263 402,269" fill="#698597"/><polygon id="go-s-p284" points="325,340 329,350 332,330" fill="#4f585b"/><polygon id="go-s-p285" points="276,349 281.5,322 269,322" fill="#373317"/><polygon id="go-s-p286" points="353,350 352,325 332,330" fill="#638092"/><polygon id="go-s-p287" points="400,323 419,287 372,300" fill="#566261"/><polygon id="go-s-p288" points="446,211 438,192 435,207" fill="#91acb6"/><polygon id="go-s-p289" points="450,220 443,224 451,227" fill="#8da8b7"/><polygon id="go-s-p290" points="442,253 443,224 426,233" fill="#abbfcc"/><polygon id="go-s-p291" points="443,224 446,211 435,207" fill="#b0c6d3"/><polygon id="go-s-p292" points="400,323 372,300 370,320" fill="#56605c"/><polygon id="go-s-p293" points="422,263 442,253 426,254" fill="#87a1b2"/><polygon id="go-s-p294" points="442,253 426,233 426,254" fill="#a0b7c7"/><polygon id="go-s-p295" points="443,224 450,220 446,211" fill="#aac0c8"/><polygon id="go-s-p296" points="329,350 353,350 332,330" fill="#5a7583"/><polygon id="go-s-p297" points="353.5,344 365,344.5 370,320" transform="translate(33.5 5.5)" fill="#333331"/><polygon id="go-s-p298" points="-73.849358,116.119403 -82.849358,144.119403 -85.849358,115.119403" transform="translate(363.849358-26.119403)" fill="#d9d9d9"/><polygon id="go-s-p299" points="448,254 442,253 445,286" fill="#668388"/><polygon id="go-s-p300" points="442,253 451,227 443,224" fill="#8ba6b2"/><polygon id="go-s-p301" points="353,350 360,350 360,337" fill="#59645d"/><polygon id="go-s-p302" points="439,286 442,253 422,263" fill="#7791a3"/><polygon id="go-s-p303" points="392,329 400,323 370,320" fill="#504c37"/><polygon id="go-s-p304" points="451,255 448,254 445,286" fill="#557e57"/><polygon id="go-s-p305" points="442,253 448,254 451,227" fill="#68838f"/><polygon id="go-s-p306" points="439,286 422,263 419,287" fill="#617580"/><polygon id="go-s-p307" points="448,254 451,255 451,227" fill="#657769"/><polygon id="go-s-p308" points="392,329 405,325 400,323" fill="#3d3323"/><polygon id="go-s-p309" points="400,323 405,325 419,287" fill="#474d48"/><polygon id="go-s-p310" points="387,350 405,325 392,329" fill="#382a18"/><polygon id="go-s-p311" points="448,312 439,286 419,287" fill="#5d737b"/><polygon id="go-s-p312" points="448,312 445,286 439,286" fill="#658184"/><polygon id="go-s-p313" points="439,286 445,286 442,253" fill="#66838f"/><polygon id="go-s-p314" points="437,330 448,312 419,287" fill="#545e58"/><polygon id="go-s-p315" points="440,331 437,330 434,350" fill="#556665"/><polygon id="go-s-p316" points="423,334 437,330 419,287" fill="#453d2a"/><polygon id="go-s-p317" points="434,350 437,330 423,334" fill="#494c3e"/><polygon id="go-s-p318" points="437,330 440,331 448,312" fill="#556357"/><polygon id="go-s-p319" points="423,350 434,350 423,334" fill="#362e1c"/></svg>
